<svg width="200" height="44" viewBox="0 0 200 44" fill="none" xmlns="http://www.w3.org/2000/svg">
<g clip-path="url(#clip0_123_11)">
<path d="M7.71056 16.1763L4.44141 12.5306L4.65536 12.154L6.83764 12.6162L7.01736 12.8045C7.1714 13.7801 7.59074 14.6958 8.24115 15.4318L8.27538 15.6799C8.23259 15.7655 8.19836 15.8425 8.16413 15.9281C8.13845 15.988 8.11278 16.0565 8.08711 16.1164L7.71056 16.1763ZM5.2373 12.7445L7.69344 15.4831C7.13717 14.7642 6.75206 13.9255 6.58946 13.027L5.2373 12.7445Z" fill="white"/>
<path d="M29.3961 6.93368L29.1992 6.54001L30.7311 5.16217L31.1076 5.37612L30.8338 6.65982L30.6027 6.83954C30.1663 6.82242 29.7726 6.8481 29.3875 6.92512L29.3961 6.93368ZM30.5257 5.96662L30.0465 6.39452C30.1748 6.39452 30.3032 6.38597 30.4401 6.38597L30.5257 5.96662Z" fill="white"/>
<path d="M34.8305 16.1849L34.4539 16.1249C34.4197 16.0565 34.394 15.988 34.3683 15.9196C34.3341 15.8425 34.3084 15.757 34.2656 15.6799L34.2999 15.4318C34.9417 14.7043 35.361 13.7886 35.5151 12.8045L35.6948 12.6162L37.8857 12.154L38.0996 12.5306L34.8305 16.1849ZM35.943 13.0355C35.7804 13.9427 35.4038 14.7813 34.8476 15.4917L37.3037 12.7445L35.943 13.027V13.0355Z" fill="white"/>
<path d="M35.9343 23.733L35.6348 23.4934C35.7375 22.5006 35.7375 21.4908 35.6348 20.4981L35.9343 20.2585L40.5813 21.7818V22.2097L35.9343 23.733ZM36.1226 20.7976C36.191 21.5935 36.191 22.3979 36.1226 23.1938L39.7854 21.9957L36.1226 20.7976Z" fill="white"/>
<path d="M22.772 7.63543C21.7793 7.53274 20.7695 7.53274 19.7767 7.63543L19.5371 7.3359L21.0604 2.68892H21.4883L23.0116 7.3359L22.772 7.63543ZM21.2744 7.10484C21.6766 7.10484 22.0788 7.12195 22.4725 7.15619L21.2744 3.49337L20.0763 7.15619C20.4785 7.12195 20.8722 7.10484 21.2744 7.10484Z" fill="white"/>
<path d="M13.1366 6.92512C12.7686 6.85665 12.375 6.82242 11.93 6.83954L11.6989 6.65982L11.4336 5.37612L11.8101 5.16217L13.3335 6.53145L13.1366 6.92512ZM12.1867 6.38597C12.2894 6.38597 12.3921 6.38597 12.4948 6.38597L12.0155 5.95807L12.1011 6.37741C12.1011 6.37741 12.1525 6.37741 12.1867 6.37741V6.38597Z" fill="white"/>
<path d="M16.1314 8.49123L15.8832 8.43133L15.7891 8.23449L16.0544 3.39923L16.4737 3.28798L19.1523 7.38725L18.9983 7.73813C17.9885 7.90073 17.0214 8.14891 16.1314 8.49123ZM16.4737 4.1181L16.2598 7.96064C16.9957 7.7039 17.766 7.49851 18.579 7.35302L16.4737 4.12666V4.1181Z" fill="white"/>
<path d="M34.9764 27.4728L34.7539 27.1647C35.1048 26.2405 35.3701 25.2649 35.5241 24.2636L35.875 24.1095L39.9828 26.7882L39.8716 27.2075L34.9764 27.4728ZM35.9178 24.6744C35.7723 25.4703 35.5669 26.249 35.3016 27.0021L39.1613 26.7882L35.9263 24.6744H35.9178Z" fill="white"/>
<path d="M6.64931 19.8819L2.55859 17.2118L2.66985 16.7925L7.55645 16.5272L7.77896 16.8353C7.41097 17.7852 7.15423 18.7608 7.00019 19.7279L6.64931 19.8819ZM3.38872 17.2118L6.60652 19.3171C6.752 18.5469 6.9574 17.7681 7.23125 17.0064L3.38872 17.2204V17.2118Z" fill="white"/>
<path d="M16.4815 40.7035L16.0622 40.5922L15.7969 35.7056L16.105 35.4831C17.0549 35.8511 18.0305 36.1078 18.9976 36.2704L19.1516 36.6213L16.4815 40.712V40.7035ZM16.2676 36.0308L16.4815 39.8819L18.5868 36.6641C17.808 36.5186 17.0378 36.3132 16.2761 36.0394L16.2676 36.0308Z" fill="white"/>
<path d="M35.8652 19.8905L35.5144 19.7364C35.3518 18.7351 35.095 17.7595 34.7441 16.8353L34.9666 16.5272L39.8618 16.7925L39.9731 17.2118L35.8652 19.8905ZM35.2919 16.9979C35.5572 17.751 35.7625 18.5297 35.908 19.3256L39.1429 17.2118L35.2833 16.9979H35.2919Z" fill="white"/>
<path d="M26.0588 40.7035L23.3887 36.6042L23.5427 36.2533C24.5183 36.0993 25.4854 35.834 26.4353 35.4745L26.7434 35.6971L26.4781 40.5837L26.0588 40.6949V40.7035ZM23.9535 36.647L26.0588 39.8733L26.2727 36.0223C25.5111 36.2961 24.7323 36.5015 23.9535 36.647Z" fill="white"/>
<path d="M7.56427 27.4728L2.67766 27.2075L2.56641 26.7882L6.66568 24.1181L7.01656 24.2721C7.1706 25.2392 7.4359 26.2148 7.79533 27.1647L7.57282 27.4728H7.56427ZM3.38797 26.7882L7.23906 27.0021C6.96521 26.2405 6.75982 25.4617 6.61433 24.6829L3.38797 26.7882Z" fill="white"/>
<path d="M4.65536 31.8374L4.44141 31.4608L7.702 27.8237L8.07855 27.8836C8.48933 28.7993 8.98569 29.6722 9.56764 30.4767L9.43071 30.8276L4.65536 31.8288V31.8374ZM7.80469 28.3885L5.2373 31.2555L9.00281 30.4681C8.54924 29.8092 8.15557 29.116 7.80469 28.3885Z" fill="white"/>
<path d="M30.7387 38.8293L27.1016 35.5687L27.1615 35.1921C28.0772 34.7813 28.9501 34.285 29.7545 33.703L30.1054 33.84L31.1067 38.6153L30.7301 38.8293H30.7387ZM27.6578 35.4574L30.5248 38.0248L29.7374 34.2593C29.087 34.7129 28.3853 35.1066 27.6578 35.4574Z" fill="white"/>
<path d="M26.3999 8.49123C25.5098 8.15747 24.5428 7.90073 23.533 7.73813L23.3789 7.38725L26.0576 3.28798L26.4769 3.39923L26.7422 8.23449L26.6395 8.43988L26.4084 8.48267L26.3999 8.49123ZM23.9437 7.35302C24.7482 7.49851 25.527 7.7039 26.2629 7.96064L26.049 4.1181L23.9437 7.34446V7.35302Z" fill="white"/>
<path d="M21.4883 41.3111H21.0604L19.5371 36.6555L19.7767 36.356C20.778 36.4587 21.7879 36.4587 22.7806 36.356L23.0202 36.6555L21.4969 41.3111H21.4883ZM20.0677 36.8438L21.2658 40.5066L22.4639 36.8438C21.668 36.9123 20.8636 36.9123 20.0591 36.8438H20.0677Z" fill="white"/>
<path d="M34.7706 35.8083L30.4061 33.6003L30.3633 33.2238C31.1506 32.5905 31.8609 31.8802 32.4857 31.1014L32.8622 31.1442L35.0702 35.5088L34.7621 35.8169L34.7706 35.8083ZM30.9196 33.3522L34.3599 35.098L32.614 31.6577C32.1006 32.2653 31.5272 32.8301 30.9196 33.3522Z" fill="white"/>
<path d="M37.8845 31.8374L33.092 30.8276L32.9551 30.4767C33.4857 29.7407 33.9136 29.0389 34.2645 28.3201C34.2987 28.2431 34.3329 28.166 34.3671 28.0805C34.3928 28.012 34.4185 27.9435 34.4527 27.8751L34.8293 27.8152L38.0984 31.4694L37.8845 31.846V31.8374ZM33.5285 30.4596L37.3025 31.2555L34.7351 28.3885C34.718 28.4313 34.7009 28.4741 34.6752 28.5169C34.3586 29.1673 33.982 29.8092 33.5285 30.4596Z" fill="white"/>
<path d="M11.8004 38.8293L11.4238 38.6153L12.4337 33.8228L12.7845 33.6859C13.5205 34.2165 14.2223 34.6444 14.9412 34.9953C15.0182 35.0381 15.1038 35.0638 15.1893 35.098C15.2578 35.1237 15.3177 35.1493 15.3862 35.1836L15.4461 35.5601L11.8004 38.8293ZM12.8017 34.2593L12.0058 38.0334L14.8727 35.466C14.8299 35.4489 14.7871 35.4318 14.7443 35.4061C14.0939 35.0894 13.4521 34.7129 12.8017 34.2593Z" fill="white"/>
<path d="M7.76902 35.8083L7.46094 35.5002L9.6689 31.1356L10.0454 31.0929C10.6787 31.8716 11.3891 32.5905 12.1678 33.2152L12.125 33.5918L7.76047 35.7997L7.76902 35.8083ZM9.92564 31.6491L8.17981 35.0894L11.6201 33.3436C11.0125 32.8301 10.4477 32.2567 9.92564 31.6406V31.6491Z" fill="white"/>
<path d="M6.61453 23.7416L1.95898 22.2182V21.7903L6.61453 20.267L6.91405 20.5066C6.81136 21.5079 6.81136 22.5178 6.91405 23.5105L6.61453 23.7501V23.7416ZM2.76343 22.0043L6.42625 23.2024C6.35779 22.4065 6.35779 21.6021 6.42625 20.7976L2.76343 21.9957V22.0043Z" fill="white"/>
<path d="M21.2666 43.2709C9.54215 43.2709 0 33.7287 0 21.9957C0 10.2627 9.54215 0.729141 21.2666 0.729141C32.991 0.729141 42.5332 10.2713 42.5332 21.9957C42.5332 33.7202 32.991 43.2623 21.2666 43.2623V43.2709ZM21.2666 1.18271C9.79033 1.18271 0.453573 10.5195 0.453573 21.9957C0.453573 33.472 9.79033 42.8087 21.2666 42.8087C32.7428 42.8087 42.0796 33.472 42.0796 21.9957C42.0796 10.5195 32.7514 1.18271 21.2666 1.18271Z" fill="white"/>
<path d="M21.2663 41.4651C10.5346 41.4651 1.79688 32.736 1.79688 21.9957C1.79688 11.2555 10.5346 2.53487 21.2663 2.53487C31.998 2.53487 40.7357 11.264 40.7357 22.0043C40.7357 32.7445 32.0065 41.4737 21.2663 41.4737V41.4651ZM21.2663 2.98845C10.7828 2.98845 2.25901 11.5122 2.25901 21.9957C2.25901 32.4792 10.7913 41.0116 21.2748 41.0116C31.7584 41.0116 40.2907 32.4792 40.2907 21.9957C40.2907 11.5122 31.7498 2.98845 21.2663 2.98845Z" fill="white"/>
<path d="M24.5017 22.0385L24.0566 21.9615C24.7498 18.0762 27.6852 14.9696 31.5278 14.0625L31.6305 14.5075C27.9591 15.3718 25.1606 18.3329 24.5017 22.0471V22.0385Z" fill="white"/>
<path d="M16.5089 34.1224L16.2949 33.7287C17.8182 32.8986 19.5298 32.4108 21.2586 32.3338L21.2842 32.7873C19.624 32.8644 17.9723 33.335 16.5174 34.1309L16.5089 34.1224Z" fill="white"/>
<path d="M21.5309 28.8421H21.2656L21.2742 28.3885H21.5224L22.5836 28.3115L23.1569 28.1404L23.4222 27.9521L23.5848 27.7381L23.9785 27.9692L23.833 28.1746L23.6191 28.38L23.3538 28.5426L22.8489 28.7137L22.2412 28.8079L21.5309 28.8421Z" fill="white"/>
<path d="M18.0409 22.0385C17.3819 18.3243 14.5835 15.3718 10.9121 14.4989L11.0148 14.0539C14.8573 14.9611 17.7927 18.0591 18.4859 21.9529L18.0409 22.03V22.0385Z" fill="white"/>
<path d="M21.0186 28.8421L19.889 28.7565L19.3584 28.6196L18.939 28.3971L18.7251 28.2003L18.5625 27.9692L18.9562 27.7381L19.1359 27.9692L19.4012 28.1489L19.8034 28.2773L20.5565 28.3714L21.0186 28.3885H21.2668L21.2754 28.8421H21.0186Z" fill="white"/>
<path d="M15.7041 19.7107C15.6356 19.7107 15.5672 19.7107 15.4987 19.7022C14.8911 19.6508 14.3348 19.3599 13.9412 18.8892C13.5475 18.4185 13.3592 17.8194 13.4191 17.2118C13.479 16.6042 13.7614 16.0479 14.2321 15.6543L14.5231 16.0051C14.1466 16.3218 13.9155 16.7668 13.8727 17.2546C13.8299 17.7424 13.9754 18.2217 14.292 18.5982C14.6087 18.9748 15.0537 19.2058 15.5415 19.2486C16.0379 19.2914 16.5086 19.1459 16.8851 18.8293C16.9193 18.795 16.9536 18.7694 16.9878 18.7351L17.3044 19.0603C17.3044 19.0603 17.2189 19.1374 17.1761 19.1801C16.7567 19.531 16.2433 19.7107 15.7041 19.7107Z" fill="white"/>
<path d="M26.0246 34.1224C24.5612 33.3265 22.9181 32.8558 21.2578 32.7788L21.2835 32.3252C23.0122 32.4108 24.7324 32.89 26.2471 33.7202L26.0332 34.1138L26.0246 34.1224Z" fill="white"/>
<path d="M26.8386 19.7107C26.2396 19.7107 25.6662 19.4797 25.2383 19.0603L25.5549 18.7351C25.9058 19.0774 26.3851 19.2572 26.8643 19.2572C27.3607 19.2572 27.8142 19.0518 28.1566 18.7009C28.8669 17.9735 28.8497 16.801 28.1223 16.0907C28.0881 16.0565 28.0539 16.0308 28.0196 15.9966L28.3106 15.6457C28.3534 15.6799 28.3962 15.7227 28.439 15.7655C29.3461 16.647 29.3632 18.1018 28.4818 19.009C28.0539 19.4454 27.4805 19.6936 26.8643 19.7022H26.8301L26.8386 19.7107Z" fill="white"/>
<path d="M16.877 36.2533C16.4149 35.5601 16.1753 34.7557 16.1838 33.917H16.6374C16.6374 34.6615 16.8428 35.3804 17.2621 36.0051L16.8856 36.2533H16.877Z" fill="white"/>
<path d="M21.4985 28.611H21.0449V32.5477H21.4985V28.611Z" fill="white"/>
<path d="M16.6288 33.917H16.1752C16.1752 30.6564 12.0674 24.2893 8.55859 24.2893V23.8357C12.3498 23.8357 16.6288 30.4168 16.6288 33.917Z" fill="white"/>
<path d="M26.3676 33.917H25.9141C25.9141 30.4082 30.1845 23.8357 33.9842 23.8357V24.2893C30.4755 24.2893 26.3676 30.6564 26.3676 33.917Z" fill="white"/>
<path d="M21.2498 36.9037C19.0675 36.9037 16.851 36.4245 14.7543 35.4061C7.40296 31.8374 4.31353 22.9799 7.80519 15.6115C5.90532 13.3265 6.08504 9.98032 8.2502 7.91784C9.34563 6.88233 10.7834 6.33462 12.281 6.36885C13.7359 6.40308 15.0966 6.98502 16.1235 8.01198C19.4526 6.78819 23.1069 6.78819 26.4359 8.01198C28.5412 5.91528 31.8959 5.79546 34.1381 7.77236C36.4316 9.79204 36.6969 13.2837 34.7457 15.6115C36.6969 19.7193 36.6713 24.4176 34.6772 28.5169C32.1013 33.8143 26.7782 36.9037 21.2498 36.9037ZM12.127 6.82242C10.7919 6.82242 9.52534 7.32734 8.55829 8.25161C6.53005 10.1772 6.39312 13.335 8.23309 15.4318L8.33578 15.543L8.26732 15.6799C4.78422 22.843 7.77952 31.5122 14.9425 34.9953C22.1056 38.4784 30.7748 35.4831 34.2579 28.3201C36.2091 24.3064 36.2091 19.6936 34.2579 15.6799L34.1894 15.543L34.2921 15.4318C36.1749 13.2837 35.9695 9.99743 33.8214 8.11468C31.7247 6.26615 28.5668 6.41164 26.6413 8.43988L26.5386 8.55114L26.4017 8.49979C23.0897 7.24176 19.444 7.24176 16.1321 8.49979L15.9952 8.55114L15.8925 8.43988C14.934 7.4386 13.6503 6.86521 12.2639 6.83098C12.2211 6.83098 12.1783 6.83098 12.127 6.83098V6.82242Z" fill="white"/>
<path d="M32.2885 15.3462L32.066 14.9525C32.8533 14.5075 33.4181 13.7886 33.6663 12.9157C33.9145 12.0428 33.8032 11.1356 33.3582 10.3483C32.9132 9.56098 32.1943 8.99615 31.3214 8.74797C30.4485 8.50834 29.5414 8.61104 28.754 9.05605C28.1207 9.41549 27.6244 9.95464 27.3248 10.6136L26.9141 10.4253C27.2564 9.67223 27.8126 9.05606 28.5315 8.65383C29.4216 8.14891 30.4571 8.0291 31.4498 8.30295C32.434 8.57681 33.2555 9.22722 33.7604 10.1172C34.2654 11.0073 34.3852 12.0428 34.1113 13.0355C33.8375 14.0197 33.1871 14.8412 32.297 15.3462H32.2885Z" fill="white"/>
<path d="M10.2521 15.3462C9.54182 14.9439 8.96843 14.3192 8.63467 13.5747C8.21533 12.6419 8.1811 11.5978 8.54909 10.6393C8.90853 9.68079 9.6274 8.91913 10.5602 8.49979C12.4858 7.63543 14.7622 8.49979 15.6265 10.4253L15.2158 10.6136C14.4541 8.91057 12.443 8.14891 10.7485 8.91913C9.92693 9.28712 9.29363 9.95464 8.97699 10.8019C8.66034 11.6491 8.68602 12.5648 9.05401 13.3864C9.34498 14.0454 9.85846 14.5931 10.4832 14.9439L10.2607 15.3376L10.2521 15.3462Z" fill="white"/>
<path d="M25.6656 36.2533L25.2891 36.0051C25.6998 35.389 25.9138 34.6701 25.9138 33.9256H26.3674C26.3674 34.7557 26.1363 35.5601 25.6742 36.2619L25.6656 36.2533Z" fill="white"/>
<path d="M16.3205 34.1309C13.0856 32.813 10.4669 30.1943 9.1404 26.9508C7.81391 23.7073 7.83102 20.1472 9.19174 16.9208C10.5439 13.6945 13.0771 11.187 16.3205 9.86906C19.564 8.54258 23.1241 8.55969 26.3505 9.92041C29.5769 11.2726 32.0843 13.8057 33.4023 17.0492C34.7202 20.2927 34.7116 23.8528 33.3509 27.0792C31.9988 30.3055 29.4656 32.813 26.2221 34.1309L26.051 33.7116C29.1832 32.4365 31.6222 30.0145 32.9316 26.8994C34.241 23.7843 34.2581 20.344 32.9829 17.2204C31.7078 14.0881 29.2859 11.6491 26.1708 10.3398C23.0557 9.03038 19.6154 9.01327 16.4917 10.2884C13.3595 11.5635 10.9205 13.9855 9.61108 17.1006C8.30171 20.2157 8.2846 23.656 9.55974 26.7796C10.8349 29.9033 13.3595 32.4365 16.4917 33.7116L16.3205 34.1309Z" fill="white"/>
<path d="M21.4985 7.31879H21.0449V9.12452H21.4985V7.31879Z" fill="white"/>
<path d="M8.39558 21.7732H6.58984V22.2268H8.39558V21.7732Z" fill="white"/>
<path d="M10.0091 28.2448L8.44531 29.1477L8.6721 29.5405L10.2359 28.6376L10.0091 28.2448Z" fill="white"/>
<path d="M14.6345 33.0403L13.7324 34.6046L14.1253 34.8312L15.0274 33.2669L14.6345 33.0403Z" fill="white"/>
<path d="M27.9064 33.0359L27.5137 33.2628L28.4168 34.8264L28.8096 34.5996L27.9064 33.0359Z" fill="white"/>
<path d="M32.5315 28.2414L32.3047 28.6342L33.8685 29.5371L34.0953 29.1442L32.5315 28.2414Z" fill="white"/>
<path d="M35.9522 21.7732H34.1465V22.2268H35.9522V21.7732Z" fill="white"/>
<path d="M21.4985 0.951649H21.0449V2.75738H21.4985V0.951649Z" fill="white"/>
<path d="M10.9455 3.65981L10.5527 3.88667L11.4559 5.45032L11.8486 5.22347L10.9455 3.65981Z" fill="white"/>
<path d="M3.15647 11.2812L2.92969 11.674L4.4935 12.5768L4.72029 12.184L3.15647 11.2812Z" fill="white"/>
<path d="M2.02839 21.7732H0.222656V22.2268H2.02839V21.7732Z" fill="white"/>
<path d="M4.50131 31.4212L2.9375 32.3241L3.16429 32.7169L4.7281 31.814L4.50131 31.4212Z" fill="white"/>
<path d="M11.4509 38.5514L10.5488 40.1157L10.9418 40.3423L11.8438 38.778L11.4509 38.5514Z" fill="white"/>
<path d="M21.4985 41.2426H21.0449V43.0484H21.4985V41.2426Z" fill="white"/>
<path d="M31.0842 38.5439L30.6914 38.7708L31.5945 40.3344L31.9873 40.1076L31.0842 38.5439Z" fill="white"/>
<path d="M38.0472 31.4268L37.8203 31.8195L39.384 32.7227L39.6108 32.3299L38.0472 31.4268Z" fill="white"/>
<path d="M42.3194 21.7732H40.5137V22.2268H42.3194V21.7732Z" fill="white"/>
<path d="M39.3822 11.2789L37.8184 12.1818L38.0451 12.5746L39.609 11.6718L39.3822 11.2789Z" fill="white"/>
<path d="M31.6052 3.65716L30.7031 5.22145L31.096 5.44803L31.9981 3.88374L31.6052 3.65716Z" fill="white"/>
<path d="M67.0777 29.2871L73.5475 14.4904H76.5342L77.6211 33.8828H74.6344L73.847 17.2118H73.7272L66.3417 33.8828H65.9309L58.6994 17.8879H58.5796L57.7923 33.8828H56.5L57.5869 14.4904H60.3083L67.0777 29.2871Z" fill="white"/>
<path d="M102.722 14.1395C105.263 14.1395 107.36 14.9782 109.02 16.647C110.68 18.3158 111.511 20.635 111.511 23.6046C111.511 25.5216 111.177 27.1904 110.518 28.6282C109.85 30.0659 108.986 31.1699 107.908 31.9487C105.82 33.472 103.517 34.2336 100.993 34.2336C98.4682 34.2336 96.3886 33.3864 94.7369 31.7005C93.0852 30.0145 92.2637 27.6868 92.2637 24.7172C92.2637 23.1767 92.4862 21.7818 92.9226 20.5409C93.3591 19.3 93.941 18.2901 94.6513 17.5113C95.3617 16.7326 96.1918 16.0736 97.1246 15.5516C98.8448 14.6102 100.71 14.1481 102.722 14.1481V14.1395ZM98.8876 32.5477C99.7434 33.027 100.736 33.2666 101.857 33.2666C102.978 33.2666 103.98 32.9842 104.861 32.4193C105.742 31.8545 106.427 31.11 106.915 30.1943C107.908 28.3629 108.413 26.386 108.413 24.2807C108.413 21.6791 107.899 19.5909 106.864 18.0077C105.708 16.2276 103.808 15.3462 101.155 15.3462C99.2641 16.0137 97.8264 17.1519 96.8507 18.7694C95.8751 20.3868 95.3873 22.2268 95.3873 24.2721C95.3873 26.7711 95.8751 28.8592 96.8507 30.5366C97.3557 31.3924 98.0403 32.0685 98.9047 32.5392L98.8876 32.5477Z" fill="white"/>
<path d="M141.01 34.208H140.514L127.685 18.1532H127.566V33.8828H126.273V14.4904H128.439L139.598 28.5768H139.718V14.4904H141.01V34.208Z" fill="white"/>
<path d="M157.406 33.8828V14.4904H169.156L168.865 16.4502L163.414 15.543C162.455 15.543 161.403 15.7056 160.248 16.0394V23.1596H166.752V24.2721H160.248V32.8216L169.328 31.9144L169.037 33.8742H157.406V33.8828Z" fill="white"/>
<path d="M193.94 34.2336C190.911 34.2336 188.36 33.4121 186.298 31.7689C184.227 30.1258 183.191 27.7724 183.191 24.7086C183.191 22.9114 183.534 21.3111 184.218 19.9076C184.903 18.5041 185.802 17.4001 186.914 16.5956C189.156 14.9525 191.681 14.1309 194.471 14.1309C196.088 14.1309 197.783 14.4219 199.537 15.0124L199.246 17.0064C198.33 16.6128 197.612 16.3218 197.107 16.1249C195.643 15.5944 194.171 15.3376 192.682 15.3376C190.628 15.8083 189.054 16.8181 187.95 18.3843C186.846 19.9504 186.298 21.9016 186.298 24.2465C186.298 27.1134 187.051 29.3299 188.557 30.8789C190.063 32.4279 192.04 33.2067 194.505 33.2067C196.97 33.2067 198.801 32.6761 200.008 31.6234V33.2323C198.33 33.8999 196.311 34.2251 193.949 34.2251L193.94 34.2336Z" fill="white"/>
</g>
<defs>
<clipPath id="clip0_123_11">
<rect width="200" height="42.5417" fill="white" transform="translate(0 0.729141)"/>
</clipPath>
</defs>
</svg>
