<svg width="18" height="18" viewBox="0 0 18 18" fill="none" xmlns="http://www.w3.org/2000/svg">
<path fill-rule="evenodd" clip-rule="evenodd" d="M9 17C9.65981 17 10.5264 16.4391 11.2876 14.9167C11.6889 14.1141 12.0149 13.1223 12.2274 12H5.77263C5.98511 13.1223 6.31111 14.1141 6.71245 14.9167C7.47363 16.4391 8.34019 17 9 17ZM5.6183 11H12.3817C12.4586 10.3628 12.5 9.69314 12.5 9C12.5 8.30686 12.4586 7.63721 12.3817 7H5.6183C5.54138 7.63721 5.5 8.30686 5.5 9C5.5 9.69314 5.54138 10.3628 5.6183 11ZM5.77263 6C5.98511 4.87771 6.31111 3.88592 6.71245 3.08325C7.47363 1.56088 8.34019 1 9 1C9.65981 1 10.5264 1.56088 11.2876 3.08325C11.6889 3.88592 12.0149 4.87771 12.2274 6H5.77263ZM13.3885 7C13.4615 7.64322 13.5 8.31261 13.5 9C13.5 9.68739 13.4615 10.3568 13.3885 11H16.748C16.9125 10.3608 17 9.6906 17 9C17 8.3094 16.9125 7.63924 16.748 7H13.3885ZM16.4185 6H13.2439C12.9017 4.06322 12.2373 2.43071 11.3796 1.35987C13.6735 2.07355 15.5246 3.7918 16.4185 6ZM4.75606 6H1.58152C2.47537 3.7918 4.32654 2.07355 6.62039 1.35987C5.76268 2.43071 5.09834 4.06322 4.75606 6ZM1.25203 7H4.61151C4.53853 7.64322 4.5 8.31261 4.5 9C4.5 9.68739 4.53853 10.3568 4.61151 11H1.25204C1.08751 10.3608 1 9.6906 1 9C1 8.3094 1.08751 7.63924 1.25203 7ZM11.3796 16.6401C12.2373 15.5693 12.9017 13.9368 13.2439 12H16.4185C15.5246 14.2082 13.6735 15.9265 11.3796 16.6401ZM6.62039 16.6401C4.32654 15.9265 2.47537 14.2082 1.58152 12H4.75606C5.09834 13.9368 5.76268 15.5693 6.62039 16.6401ZM9 0C13.9706 0 18 4.02944 18 9C18 13.9706 13.9706 18 9 18C4.02944 18 0 13.9706 0 9C0 4.02944 4.02944 0 9 0Z" fill="white"/>
</svg>
